# xmcd
#
# Track frame offsets:
# 150
# 19248
# 36669
# 50967
# 64964
# 80181
# 96292
# 115456
# 131915
# 145936
# 162582
# 188162
# 212514
# 229121
#
# Disc length: 3314 seconds
#
#
# Revision: 0
# Processed by: cddbd v1.5.2PL0 Copyright (c) Steve Scherf et al.
# Submitted via: FreeRIP 2.945 
#
DISCID=e00cf00e
DTITLE=Gian e Giovani - Uma História de Sucesso
DYEAR=2007
DGENRE=Sertanejo
TTITLE0=Faz de Conta (L'Italiano)
TTITLE1=Eu Busco Uma Estrela (Yo Busco Una Estrella)
TTITLE2=Dou a Cara Pra Bater
TTITLE3=Caçador de Corações (Part. Esp. César Menotti e Fabiano)
TTITLE4=Taça de Pranto
TTITLE5=Roupa de Lua-de-Mel
TTITLE6=Entre o Beijo e a Beca
TTITLE7=Página de Amigos (Part. Esp. Chitãozinho e Xororó)
TTITLE8=Peão de Vitrine
TTITLE9=Vai Pescar Moçada
TTITLE10=Bons Momentos (Part. Esp. Inimigos da HP)
TTITLE11=Nem Dormindo Consigo Te Esquecer
TTITLE12=Te Amo (Ti Amo)
TTITLE13=O Grande Amor da Minha Vida (Convite de Casamento)
EXTD=
EXTT0=
EXTT1=
EXTT2=
EXTT3=
EXTT4=
EXTT5=
EXTT6=
EXTT7=
EXTT8=
EXTT9=
EXTT10=
EXTT11=
EXTT12=
EXTT13=
PLAYORDER=
